<svg id="SvgjsSvg1001" width="288" height="288" xmlns="http://www.w3.org/2000/svg" version="1.1" xmlns:xlink="http://www.w3.org/1999/xlink" xmlns:svgjs="http://svgjs.com/svgjs"><defs id="SvgjsDefs1002"></defs><g id="SvgjsG1008" transform="matrix(1,0,0,1,0,0)"><svg xmlns="http://www.w3.org/2000/svg" enable-background="new 0 0 26 26" viewBox="0 0 26 26" width="288" height="288"><path fill="#ffffff" d="M1.75 7.75h6.6803589c.3355713 1.2952271 1.5039063 2.2587891 2.9026489 2.2587891S13.9000854 9.0452271 14.2356567 7.75H24.25C24.6640625 7.75 25 7.4140625 25 7s-.3359375-.75-.75-.75H14.2356567c-.3355713-1.2952271-1.5039063-2.2587891-2.9026489-2.2587891S8.7659302 4.9547729 8.4303589 6.25H1.75C1.3359375 6.25 1 6.5859375 1 7S1.3359375 7.75 1.75 7.75zM11.3330078 5.4912109c.8320313 0 1.5087891.6767578 1.5087891 1.5087891s-.6767578 1.5087891-1.5087891 1.5087891S9.8242188 7.8320313 9.8242188 7 10.5009766 5.4912109 11.3330078 5.4912109zM24.25 12.25h-1.6061401c-.3355713-1.2952271-1.5039063-2.2587891-2.9026489-2.2587891S17.1741333 10.9547729 16.838562 12.25H1.75C1.3359375 12.25 1 12.5859375 1 13s.3359375.75.75.75h15.088562c.3355713 1.2952271 1.5039063 2.2587891 2.9026489 2.2587891s2.5670776-.963562 2.9026489-2.2587891H24.25c.4140625 0 .75-.3359375.75-.75S24.6640625 12.25 24.25 12.25zM19.7412109 14.5087891c-.8320313 0-1.5087891-.6767578-1.5087891-1.5087891s.6767578-1.5087891 1.5087891-1.5087891S21.25 12.1679688 21.25 13 20.5732422 14.5087891 19.7412109 14.5087891zM24.25 18.25H9.7181396c-.3355103-1.2952271-1.5037842-2.2587891-2.9017334-2.2587891-1.3987427 0-2.5670776.963562-2.9026489 2.2587891H1.75C1.3359375 18.25 1 18.5859375 1 19s.3359375.75.75.75h2.1637573c.3355713 1.2952271 1.5039063 2.2587891 2.9026489 2.2587891 1.3979492 0 2.5662231-.963562 2.9017334-2.2587891H24.25c.4140625 0 .75-.3359375.75-.75S24.6640625 18.25 24.25 18.25zM6.8164063 20.5087891c-.8320313 0-1.5087891-.6767578-1.5087891-1.5087891s.6767578-1.5087891 1.5087891-1.5087891c.8310547 0 1.5078125.6767578 1.5078125 1.5087891S7.6474609 20.5087891 6.8164063 20.5087891z" class="color1D1D1B svgShape"></path></svg></g></svg>